<svg xmlns="http://www.w3.org/2000/svg" viewBox="0 0 400 24">
    <rect width="400" height="24" fill="#1e293b" />
    <rect x="0" y="0" width="16" height="24" fill="#0f172a" />
    <rect x="384" y="0" width="16" height="24" fill="#0f172a" />
    <!-- Patch Ports -->
    <g fill="#000" stroke="#475569" stroke-width="1">
      <rect x="25" y="6" width="10" height="12" rx="1" /><rect x="39" y="6" width="10" height="12" rx="1" /><rect x="53" y="6" width="10" height="12" rx="1" /><rect x="67" y="6" width="10" height="12" rx="1" /><rect x="81" y="6" width="10" height="12" rx="1" /><rect x="95" y="6" width="10" height="12" rx="1" /><rect x="109" y="6" width="10" height="12" rx="1" /><rect x="123" y="6" width="10" height="12" rx="1" /><rect x="137" y="6" width="10" height="12" rx="1" /><rect x="151" y="6" width="10" height="12" rx="1" /><rect x="165" y="6" width="10" height="12" rx="1" /><rect x="179" y="6" width="10" height="12" rx="1" /><rect x="193" y="6" width="10" height="12" rx="1" /><rect x="207" y="6" width="10" height="12" rx="1" /><rect x="221" y="6" width="10" height="12" rx="1" /><rect x="235" y="6" width="10" height="12" rx="1" /><rect x="249" y="6" width="10" height="12" rx="1" /><rect x="263" y="6" width="10" height="12" rx="1" /><rect x="277" y="6" width="10" height="12" rx="1" /><rect x="291" y="6" width="10" height="12" rx="1" /><rect x="305" y="6" width="10" height="12" rx="1" /><rect x="319" y="6" width="10" height="12" rx="1" /><rect x="333" y="6" width="10" height="12" rx="1" /><rect x="347" y="6" width="10" height="12" rx="1" />
    </g>
  </svg>